<svg xmlns="http://www.w3.org/2000/svg" version="1.1" xmlns:xlink="http://www.w3.org/1999/xlink"
  xmlns:svgjs="http://svgjs.com/svgjs" width="512" height="512" x="0" y="0" viewBox="0 0 512 512"
  style="enable-background:new 0 0 512 512" xml:space="preserve" class="">
  <g>
    <path xmlns="http://www.w3.org/2000/svg"
      d="m502 213c-42.337 0-408.669 0-432 0-5.523 0-10 4.478-10 10v83h-50c-5.523 0-10 4.478-10 10v93c0 5.522 4.477 10 10 10h50v83c0 5.522 4.477 10 10 10h171c5.522 0 10-4.478 10-10s-4.478-10-10-10h-161v-73h132.664l14.106 33.847c1.553 3.727 5.194 6.153 9.23 6.153h100c4.037 0 7.678-2.427 9.23-6.153l14.106-33.847h132.664v73h-161c-5.522 0-10 4.478-10 10s4.478 10 10 10h171c5.522 0 10-4.478 10-10v-93c0-5.522-4.478-10-10-10h-50v-73h50c5.522 0 10-4.478 10-10v-93c0-5.523-4.478-10-10-10zm-164.331 20-8.335 20h-86.668l-8.335-20zm-317.669 93h132.664l14.106 33.847c1.553 3.727 5.194 6.153 9.23 6.153h100c4.037 0 7.678-2.427 9.23-6.153l14.106-33.847h132.664v73c-22.136 0-399.555 0-412 0zm154.331 0h103.338l-8.335 20h-86.668zm155.003 113h-86.668l-8.335-20h103.338zm162.666-133c-20.452 0-399.05 0-412 0v-73h132.664l14.106 33.847c1.553 3.727 5.194 6.153 9.23 6.153h100c4.037 0 7.678-2.427 9.23-6.153l14.106-33.847h132.664z"
      fill="#000000" data-original="#000000"></path>
    <path xmlns="http://www.w3.org/2000/svg"
      d="m269.621 162.299c-4.253 3.522-4.846 9.826-1.322 14.08 3.522 4.253 9.827 4.845 14.08 1.322 15.233-12.617 23.624-29.559 23.624-47.701s-8.391-35.084-23.627-47.704c-10.561-8.739-16.376-20.209-16.376-32.296s5.815-23.557 16.376-32.296c4.255-3.521 4.849-9.825 1.328-14.08-3.52-4.253-9.824-4.848-14.08-1.328-15.234 12.608-23.624 29.55-23.624 47.704s8.39 35.096 23.621 47.701c10.563 8.75 16.382 20.221 16.382 32.299s-5.818 23.549-16.382 32.299z"
      fill="#000000" data-original="#000000"></path>
    <path xmlns="http://www.w3.org/2000/svg"
      d="m349.621 162.299c-4.253 3.522-4.846 9.826-1.322 14.08 3.522 4.253 9.827 4.845 14.08 1.322 15.233-12.617 23.624-29.559 23.624-47.701s-8.391-35.084-23.627-47.704c-10.561-8.739-16.376-20.209-16.376-32.296s5.815-23.557 16.376-32.296c4.255-3.521 4.849-9.825 1.328-14.08-3.52-4.253-9.824-4.848-14.08-1.328-15.234 12.608-23.624 29.55-23.624 47.704s8.39 35.096 23.621 47.701c10.563 8.75 16.382 20.221 16.382 32.299s-5.818 23.549-16.382 32.299z"
      fill="#000000" data-original="#000000"></path>
    <path xmlns="http://www.w3.org/2000/svg"
      d="m189.621 162.299c-4.253 3.522-4.845 9.826-1.322 14.08 3.522 4.252 9.828 4.846 14.08 1.322 15.234-12.617 23.624-29.559 23.624-47.701s-8.39-35.084-23.626-47.704c-10.561-8.739-16.377-20.209-16.377-32.296s5.816-23.557 16.376-32.296c4.254-3.521 4.849-9.825 1.328-14.08-3.523-4.255-9.827-4.848-14.08-1.328-15.234 12.608-23.624 29.55-23.624 47.704s8.39 35.096 23.621 47.701c10.564 8.75 16.381 20.221 16.381 32.299s-5.817 23.549-16.381 32.299z"
      fill="#000000" data-original="#000000"></path>
    <circle xmlns="http://www.w3.org/2000/svg" cx="286" cy="502" r="10" fill="#000000" data-original="#000000"></circle>
  </g>
</svg>