<svg xmlns="http://www.w3.org/2000/svg" version="1.1" xmlns:xlink="http://www.w3.org/1999/xlink"
  xmlns:svgjs="http://svgjs.com/svgjs" width="512" height="512" x="0" y="0" viewBox="0 0 512.784 512.784"
  style="enable-background:new 0 0 512 512" xml:space="preserve" class="">
  <g>
    <path xmlns="http://www.w3.org/2000/svg"
      d="m256.49 512.611c-39.223 0-76.087-8.051-109.57-23.929-9.98-4.733-14.234-16.66-9.501-26.641s16.661-14.234 26.641-9.501c182.603 84.249 373.961-104.925 287.358-288.361-10.496-24.22 23.859-40.738 36.143-17.138 81.565 167.692-45.06 367.114-231.071 365.57zm-204.366-135.959c9.964-4.768 14.175-16.71 9.407-26.674-86.823-182.155 104.549-375.416 287.392-288.294 9.98 4.732 21.906.477 26.638-9.503s.479-21.908-9.501-26.641c-218.254-102.475-442.869 124.354-340.608 341.706 4.782 10.061 16.93 14.133 26.672 9.406zm-17.492 130.101s472-472 472-472c7.811-7.811 7.811-20.474 0-28.284s-20.474-7.811-28.284 0c0 0-472 472-472 472-7.811 7.811-7.811 20.474 0 28.284 7.811 7.811 20.474 7.811 28.284 0z"
      fill="#000000" data-original="#000000"></path>
  </g>
</svg>