<svg xmlns="http://www.w3.org/2000/svg" version="1.1" xmlns:xlink="http://www.w3.org/1999/xlink"
  xmlns:svgjs="http://svgjs.com/svgjs" width="512" height="512" x="0" y="0" viewBox="0 0 512 512"
  style="enable-background:new 0 0 512 512" xml:space="preserve" class="">
  <g>
    <g xmlns="http://www.w3.org/2000/svg">
      <g>
        <path
          d="M434.123,272.161C386.187,242.373,322.929,225.967,256,225.967s-130.188,16.405-178.123,46.194    C27.657,303.369,0,345.562,0,390.967c0,40.286,21.821,73.849,81.776,90.518c43.23,12.019,100.913,14.482,174.224,14.482    c73.31,0,130.993-2.463,174.224-14.482C490.157,464.822,512,431.273,512,390.967C512,345.562,484.343,303.369,434.123,272.161z     M361,271.639c10.422,3.33,20.449,7.169,30,11.497v47.831c0,8.271-6.729,15-15,15s-15-6.729-15-15V271.639z M241,256.274    c4.972-0.197,9.972-0.306,15-0.306s10.028,0.109,15,0.306v73.533c0,8.271-6.729,15-15,15s-15-6.729-15-15V256.274z M121,283.136    c9.551-4.328,19.578-8.167,30-11.497v59.328c0,8.271-6.729,15-15,15s-15-6.729-15-15V283.136z M256,465.967    c-146.572,0-226-11.952-226-75c0-33.878,21.64-66.31,61-91.601v31.601c0,24.813,20.187,45,45,45s45-20.187,45-45v-67.271    c9.772-2.085,19.787-3.768,30-5.017v71.128c0,24.813,20.187,45,45,45s45-20.187,45-45v-71.128c10.213,1.249,20.228,2.932,30,5.017    v67.271c0,24.813,20.187,45,45,45s45-20.187,45-45v-31.601c39.361,25.291,61,57.723,61,91.601    C482,454.015,402.572,465.967,256,465.967z"
          fill="#000000" data-original="#000000"></path>
      </g>
    </g>
    <g xmlns="http://www.w3.org/2000/svg">
      <g>
        <path
          d="M190.07,104.514c14.236-9.491,22.735-25.558,22.735-42.981c0-17.423-8.499-33.49-22.735-42.98    c-6.893-4.595-16.206-2.733-20.801,4.16c-4.596,6.893-2.733,16.206,4.16,20.801c5.958,3.972,9.376,10.54,9.376,18.019    c0,7.48-3.418,14.048-9.376,18.02c-14.236,9.49-22.735,25.371-22.735,42.48c0,17.109,8.499,32.99,22.735,42.481    c6.881,4.587,16.198,2.745,20.801-4.16c4.596-6.893,2.733-16.206-4.16-20.801c-5.958-3.972-9.376-10.358-9.376-17.52    C180.694,114.872,184.112,108.486,190.07,104.514z"
          fill="#000000" data-original="#000000"></path>
      </g>
    </g>
    <g xmlns="http://www.w3.org/2000/svg">
      <g>
        <path
          d="M265.07,104.514c14.236-9.491,22.735-25.558,22.735-42.981c0-17.423-8.499-33.49-22.735-42.98    c-6.894-4.595-16.207-2.733-20.801,4.16c-4.596,6.893-2.733,16.206,4.16,20.801c5.958,3.972,9.376,10.54,9.376,18.019    c0,7.48-3.418,14.048-9.376,18.02c-14.236,9.49-22.735,25.371-22.735,42.48c0,17.109,8.499,32.99,22.735,42.481    c6.881,4.587,16.198,2.745,20.801-4.16c4.596-6.893,2.733-16.206-4.16-20.801c-5.958-3.972-9.376-10.358-9.376-17.52    C255.694,114.872,259.112,108.486,265.07,104.514z"
          fill="#000000" data-original="#000000"></path>
      </g>
    </g>
    <g xmlns="http://www.w3.org/2000/svg">
      <g>
        <path
          d="M340.07,104.514c14.236-9.491,22.735-25.558,22.735-42.981c0-17.423-8.499-33.49-22.735-42.98    c-6.894-4.595-16.207-2.733-20.801,4.16c-4.596,6.893-2.733,16.206,4.16,20.801c5.958,3.972,9.376,10.54,9.376,18.019    c0,7.48-3.418,14.048-9.376,18.02c-14.236,9.49-22.735,25.371-22.735,42.48c0,17.109,8.499,32.99,22.735,42.481    c6.881,4.587,16.198,2.745,20.801-4.16c4.596-6.893,2.733-16.206-4.16-20.801c-5.958-3.972-9.376-10.358-9.376-17.52    C330.694,114.872,334.112,108.486,340.07,104.514z"
          fill="#000000" data-original="#000000"></path>
      </g>
    </g>
  </g>
</svg>